<?xml version="1.0" encoding="UTF-8"?>
<svg id="Layer_1" data-name="Layer 1" xmlns="http://www.w3.org/2000/svg" version="1.1" viewBox="0 0 512 512">
  <defs>
    <style>
      .cls-1 {
        fill: #e00a0a;
        stroke-width: 0px;
      }
    </style>
  </defs>
  <path class="cls-1" d="M497,55c-40.7,0-76.2,22.7-94.5,56.1-37-41.6-90.1-65.8-146.5-65.8s-74.4,10.8-105.7,31v-16h-30v68.6c0,18-13,33-30.1,36.1V60.3h-30v104.7c-17.1-3.1-30.1-18.1-30.1-36.1V60.3H0v68.6C0,163.4,26.4,191.9,60.1,195.2v46.6h-30.1v224.9h90.1v-84.2c36.1,34.8,84.5,54.7,135.8,54.7s84.5-13.9,118.9-40.2c18.6-14.2,34.6-31.8,47-51.5v121.2h90.1V55h-15ZM90.2,436.7h-30.1v-164.9h30.1v164.9ZM356.7,373.2c-29.1,22.2-63.9,34-100.7,34-54.2,0-104.7-26.3-135.8-70.6v-94.9h-30.1v-46.6c33.7-3.3,60.1-31.8,60.1-66.4v-15.5c29.7-24.6,67-38,105.7-38s103.7,25.8,134.9,69.2c-1,5.9-1.5,12-1.5,18.2v143.7h19.3c-11.2,26.2-29.2,49.4-52,66.8h0ZM482,436.7h-30.1v-130.3h30.1v130.3ZM419.3,276.4v-113.7c0-37.7,27-69.2,62.7-76.2v189.9h-62.7Z"/>
  <path class="cls-1" d="M268.1,148.2h-24.3l-20.8,36h-48.9v29.5l15.9,27.6-15.9,27.6v29.5h48.9l20.8,36h24.3l20.8-36h48.9v-29.5l-15.9-27.6,15.9-27.6v-29.5h-48.9l-20.8-36ZM302.8,268.3h-31.2l-15.6,27-15.6-27h-31.2l15.6-27-15.6-27h31.2l15.6-27,15.6,27h31.2l-15.6,27,15.6,27Z"/>
</svg>