<svg xmlns="http://www.w3.org/2000/svg" xmlns:xlink="http://www.w3.org/1999/xlink" xmlns:inkscape="http://www.inkscape.org/namespaces/inkscape" version="1.1" width="346.378" height="170.241" viewBox="0 0 346.378 170.241">
<defs>
<clipPath id="clip_0">
<path transform="matrix(1,0,0,-1,0,170.241)" d="M0 170.241H346.378V0H0Z"/>
</clipPath>
</defs>
<g clip-path="url(#clip_0)">
<path transform="matrix(1,0,0,-1,188.1219,83.1841)" d="M0 0C3.086 6.337 9.971-6.878 .571-.494-7.159 4.748-13.265 13.392-17.955 21.33-26.534 35.848-30.533 56.8-18.777 70.842-8.281 83.359 10.056 85.324 23.826 77.164 30.958 72.964 36.693 66.131 38.205 57.832 38.672 55.221 38.865 52.363 37.993 49.807 36.94 46.67 33.129 44.274 31.81 48.874 28.003 62.1 49.696 78.13 62.61 77.912 80.445 77.614 91.087 60.335 90.609 43.883 90.127 27.482 78.86 14.636 68.148 3.371 62.756-2.295 56.82-7.861 52.577-14.48 50.108-18.326 48.211-22.808 48.97-27.475 49.426-30.186 52.149-35.309 55.42-31.972 54.745-32.643 53.954-32.755 53.418-32.709 50.625-32.474 50.062-23.76 50.305-22.464 51.856-14.144 59.142-7.178 64.712-1.319 78.057 12.757 95.48 27.436 92.931 50.66 91.098 67.442 76.653 80.138 58.991 78.023 51.05 77.068 43.312 73.444 37.978 67.467 34.024 63.035 25.041 46.571 33.754 45.752 41.97 45.007 39.883 58.229 38.205 62.524 35.158 70.291 28.527 76.271 20.937 79.529 4.771 86.445-16.061 80.85-24.011 64.48-32.192 47.645-26.773 28.416-16.574 14.373-13.006 9.46-.748-4.019 4.189-3.082 10.523-1.891 1.925 6.337-1.23-.12-.802-.251-.393-.213 0 0 1.042 2.133 0 0 0 0" fill="#ed1d24"/>
<path transform="matrix(1,0,0,-1,188.1219,83.1841)" stroke-width="1.5" stroke-linecap="round" stroke-linejoin="round" fill="none" stroke="#ed1d24" d="M0 0C3.086 6.337 9.971-6.878 .571-.494-7.159 4.748-13.265 13.392-17.955 21.33-26.534 35.848-30.533 56.8-18.777 70.842-8.281 83.359 10.056 85.324 23.826 77.164 30.958 72.964 36.693 66.131 38.205 57.832 38.672 55.221 38.865 52.363 37.993 49.807 36.94 46.67 33.129 44.274 31.81 48.874 28.003 62.1 49.696 78.13 62.61 77.912 80.445 77.614 91.087 60.335 90.609 43.883 90.127 27.482 78.86 14.636 68.148 3.371 62.756-2.295 56.82-7.861 52.577-14.48 50.108-18.326 48.211-22.808 48.97-27.475 49.426-30.186 52.149-35.309 55.42-31.972 54.745-32.643 53.954-32.755 53.418-32.709 50.625-32.474 50.062-23.76 50.305-22.464 51.856-14.144 59.142-7.178 64.712-1.319 78.057 12.757 95.48 27.436 92.931 50.66 91.098 67.442 76.653 80.138 58.991 78.023 51.05 77.068 43.312 73.444 37.978 67.467 34.024 63.035 25.041 46.571 33.754 45.752 41.97 45.007 39.883 58.229 38.205 62.524 35.158 70.291 28.527 76.271 20.937 79.529 4.771 86.445-16.061 80.85-24.011 64.48-32.192 47.645-26.773 28.416-16.574 14.373-13.006 9.46-.748-4.019 4.189-3.082 10.523-1.891 1.925 6.337-1.23-.12-.802-.251-.393-.213 0 0 1.042 2.133 0 0 0 0Z"/>
<path transform="matrix(1,0,0,-1,59.7401,118.049198)" d="M0 0C0-1.589-.91-3.009-2.715-4.251L-10.688-9.558H-12.976V25.141C-12.976 27.899-13.446 29.793-14.379 30.8-15.317 31.806-17.238 32.312-20.142 32.312H-32.416C-33.527 32.312-34.067 31.509-34.067 29.92V8.293C-34.067 2.627-35.694-1.909-38.953-5.319-41.793-8.212-45.669-9.674-50.595-9.674H-51.015C-54.07-9.674-56.473-9.068-58.251-7.861-58.814-7.406-58.953-6.592-58.675-5.427L-56.064 4.355C-54.83 3.537-53.229 3.136-51.285 3.136-48.593 3.136-47.254 4.59-47.254 7.491V21.616C-47.254 25.7-46.379 28.94-44.647 31.351-44.115 32.057-44.257 32.415-45.071 32.415-49.642 32.415-53.229 34.117-55.852 37.511-56.357 38.19-56.6 38.815-56.6 39.382-56.6 39.835-56.43 40.352-56.064 40.919L-50.17 49.842H-49.53C-47.474 47.086-44.747 45.707-41.349 45.707H-15.575C-10.117 45.707-6.164 44.506-3.691 42.122-1.234 39.717 0 35.447 0 29.28Z" fill="#231f20"/>
<path transform="matrix(1,0,0,-1,89.5985,83.3426)" d="M0 0C0-3.552-1.076-7.186-3.236-10.9-4.69-13.342-6.588-15.537-8.926-17.492-11.792-19.98-14.916-21.453-18.283-21.951L-18.495-21.315C-17.681-19.937-16.617-17.89-15.302-15.201-13.851-11.587-13.13-9.084-13.13-7.718-13.13-5.014-14.708-2.665-17.855-.64-19.132 .382-21.01 1.593-23.49 2.97V3.394L-17.689 11.099C-16.347 12.983-15.263 13.913-14.461 13.913-11.977 13.913-8.235 11.492-3.236 6.634-1.076 4.546 0 2.326 0 0" fill="#231f20"/>
<path transform="matrix(1,0,0,-1,155.2819,100.5144)" d="M0 0C0-6.48-1.909-12.366-5.739-17.639-10.38-24.019-16.983-27.208-25.561-27.208-29.029-27.208-31.671-26.784-33.48-25.932-34.93-25.268-35.656-24.32-35.656-23.104-35.656-22.657-35.59-22.214-35.443-21.786L-32.951-12.324C-30.471-13.651-27.636-14.291-24.447-14.291-20.4-14.291-17.573-13.253-15.942-11.182-14.31-9.115-13.496-5.312-13.496 .216-13.496 6.306-14.719 10.468-17.161 12.69-19.112 14.368-22.051 15.197-25.986 15.197-30.63 15.197-33.923 14.121-35.868 11.957-37.395 10.225-38.525 7.035-39.266 2.395L-42.082-16.212C-42.51-18.9-43.2-20.81-44.156-21.897-44.801-22.526-46.07-23.251-47.987-24.069L-54.833-26.993H-57.125L-54.312-11.317C-53.001-4.089-52.341 .837-52.341 3.464-52.341 8.378-53.796 12.736-56.704 16.532-57.622 17.77-58.706 19.012-59.944 20.246L-52.982 28.271C-51.887 29.521-50.872 30.14-49.95 30.14-48.184 30.14-46.185 28.462-43.948 25.139-42.495 23.008-41.287 20.385-40.338 17.272-40.191 16.775-39.91 16.532-39.49 16.532-39.054 16.532-38.741 16.809-38.525 17.38-36.115 24.778-30.93 28.483-22.954 28.483H-21.311C-14.399 28.483-9.118 26.423-5.477 22.294-1.82 18.159 0 12.362 0 4.887Z" fill="#231f20"/>
<path transform="matrix(1,0,0,-1,183.6552,116.5141)" d="M0 0C0-2.337-.763-4.05-2.287-5.149L-10.734-11.093H-13.014V22.962C-13.014 28.844-16.466 33.272-23.382 36.246L-16.624 45.283C-15.606 46.62-14.626 47.156-13.7 46.878-12.038 46.521-9.82 45.237-7.07 42.992-2.353 39.069 0 34.016 0 27.852Z" fill="#231f20"/>
<path transform="matrix(1,0,0,-1,232.3364,117.096698)" d="M0 0C0-1.863-.798-3.386-2.388-4.567L-10.893-10.511H-13.072V21.998C-13.072 25.473-13.82 27.899-15.305 29.272-16.798 30.665-19.097 31.359-22.217 31.359H-34.757C-37.488 31.359-39.767 32.732-41.611 35.509-42.104 35.999-42.359 36.581-42.359 37.256-42.359 37.754-42.178 38.3-41.823 38.903L-35.821 48.89H-35.185C-34.359 47.945-33.526 47.011-32.655 46.109-31.795 45.2-30.695 44.755-29.384 44.755H-18.283C-6.086 44.755 0 38.62 0 26.364Z" fill="#231f20"/>
<path transform="matrix(1,0,0,-1,289.4651,73.8885)" d="M0 0-4.042-7.386C-5.631-10.364-7.495-11.849-9.628-11.849H-11.004C-12.246-11.849-12.864-13.377-12.864-16.424V-42.626C-12.864-44.824-13.813-46.568-15.676-47.883L-23.972-53.619H-26.248V-27.101C-26.248-23.884-26.036-21.5-25.616-19.973-24.809-17.18-23.278-14.962-21.052-13.338-20.759-13.134-20.659-12.845-20.721-12.486-20.721-12.065-20.941-11.849-21.369-11.849H-42.035C-45.511-11.849-48.238-10.503-50.22-7.811-50.783-7.252-51.069-6.627-51.069-5.952-51.069-5.527-50.83-4.874-50.324-3.981L-44.523 5.682H-44.002L-43.362 4.937C-41.098 2.683-39.239 1.547-37.785 1.547H0Z" fill="#231f20"/>
<path transform="matrix(1,0,0,-1,311.2001,117.62869)" d="M0 0C0-1.662-.937-3.147-2.816-4.459L-10.784-9.979H-12.968V13.08C-12.968 16.119-11.976 18.198-9.994 19.293L-1.647 23.872 0 23.282ZM35.178 .328C35.178-1.62 34.368-3.147 32.728-4.247L24.393-9.979H22.109V22.641C22.109 26.109 21.342 28.578 19.818 30.032 18.437 31.278 16.081 31.891 12.748 31.891H-6.65C-10.325 31.891-13.199 33.264-15.247 36.041-15.683 36.597-15.887 37.21-15.887 37.893-15.887 38.394-15.749 38.903-15.459 39.435L-9.469 49.422H-8.829C-7.869 48.477-6.931 47.543-6.032 46.641-5.122 45.732-4.062 45.287-2.816 45.287H17.539C29.299 45.287 35.178 39.048 35.178 26.568Z" fill="#231f20"/>
<path transform="matrix(1,0,0,-1,6.376,163.1048)" d="M0 0C0-.667-.378-1.269-1.13-1.79L-4.32-4.043H-5.192V5.304C-5.192 6.538-4.798 7.379-4.004 7.823L-.659 9.678 0 9.435ZM14.094 .135C14.094-.644 13.77-1.269 13.115-1.713L9.77-4.043H8.856V9.176C8.856 10.58 8.552 11.579 7.938 12.166 7.387 12.675 6.434 12.918 5.107 12.918H-2.665C-4.146 12.918-5.292 13.484-6.117 14.603-6.279 14.823-6.376 15.081-6.376 15.351-6.376 15.556-6.306 15.768-6.198 15.976L-3.787 20.03H-3.537C-3.155 19.633-2.777 19.27-2.415 18.892-2.059 18.526-1.62 18.341-1.13 18.341H7.02C11.741 18.341 14.094 15.818 14.094 10.765Z" fill="#ed1d24"/>
<path transform="matrix(1,0,0,-1,39.8641,162.87329)" d="M0 0C0-.764-.32-1.389-.964-1.859L-4.37-4.274H-5.234V8.91C-5.234 10.318-5.531 11.286-6.125 11.861-6.731 12.416-7.656 12.686-8.899 12.686H-13.924C-15.012 12.686-15.938 13.253-16.675 14.372-16.871 14.576-16.968 14.807-16.968 15.074-16.968 15.278-16.899 15.502-16.755 15.745L-14.349 19.799H-14.094C-13.762 19.402-13.423 19.039-13.076 18.661-12.733 18.294-12.305 18.109-11.772 18.109H-7.325C-2.442 18.109 0 15.637 0 10.669Z" fill="#ed1d24"/>
<path transform="matrix(1,0,0,-1,60.3381,150.9858)" d="M0 0C0-2.299-.683-4.389-2.06-6.229-3.009-7.568-4.077-8.528-5.269-9.11L-5.848-8.837C-5.728-8.219-5.612-7.614-5.481-7.031-5.312-6.102-5.227-5.137-5.227-4.162V-2.638C-5.227-.224-6.122 1.84-7.892 3.58L-4.567 6.985C-4.347 7.209-4.047 7.321-3.695 7.321-3.302 7.321-2.905 7.155-2.523 6.804-1.528 5.84-.884 4.895-.567 3.988-.181 2.893 0 1.636 0 .201ZM10.337-1.523C10.337-5.327 8.809-8.868 5.759-12.146 3.197-14.881-.027-16.243-3.934-16.243H-4.27C-7.653-16.243-10.326-15.22-12.293-13.168-14.349-11.085-15.387-8.193-15.387-4.497V-2.229C-15.387 .035-16.227 2.017-17.921 3.715L-14.642 6.985C-14.442 7.178-14.195 7.275-13.921 7.275-13.508 7.275-13.095 7.109-12.675 6.766-11.815 5.99-11.221 5.169-10.897 4.293-10.395 2.935-10.141 1.612-10.141 .328V-3.522C-10.141-6.083-9.616-7.95-8.552-9.161-7.364-10.511-5.612-11.182-3.313-11.182H-3.186C-.749-11.182 1.188-10.418 2.611-8.894 4.046-7.367 4.752-5.28 4.752-2.638 4.752-.544 3.992 1.435 2.476 3.283L5.678 6.985C5.905 7.244 6.171 7.364 6.503 7.364 6.885 7.364 7.197 7.224 7.455 6.939 8.536 5.759 9.222 4.752 9.508 3.903 10.059 2.222 10.337 .417 10.337-1.523" fill="#ed1d24"/>
<path transform="matrix(1,0,0,-1,91.4691,155.2823)" d="M0 0C0-3.221-.714-5.848-2.145-7.904-3.849-10.376-5.708-11.599-7.722-11.599H-17.704V-11.171L-16.308-7.14C-16.107-6.553-15.629-6.264-14.873-6.264H-8.443C-7.228-6.264-6.368-5.836-5.878-4.984-5.396-4.128-5.142-2.735-5.142-.803-5.142 1.141-5.493 2.607-6.195 3.61-6.885 4.601-8.027 5.095-9.597 5.095H-14.688C-16.061 5.095-17.068 5.62-17.704 6.657-17.905 6.854-18.009 7.147-18.009 7.529-18.009 7.71-17.905 7.965-17.704 8.331L-15.39 12.208H-15.132C-14.314 11.085-13.535 10.518-12.81 10.518H-8.933C-2.974 10.518 0 7.016 0 0" fill="#ed1d24"/>
<path transform="matrix(1,0,0,-1,120.7563,161.5889)" d="M0 0V7.275C0 10.028-1.207 11.402-3.622 11.402H-9.585C-9.886 11.402-10.04 11.201-10.04 10.804V0ZM4.934-3.533C4.934-4.702 4.39-5.292 3.313-5.292H-14.352C-14.842-5.292-15.081-4.999-15.081-4.413V6.696C-15.081 7.934-14.611 9.176-13.693 10.441L-12.944 11.452C-14.345 11.753-15.436 12.424-16.231 13.477-16.401 13.724-16.489 13.986-16.489 14.272-16.489 14.456-16.408 14.657-16.273 14.896L-13.905 18.514H-13.658C-12.544 17.392-11.494 16.825-10.503 16.825H-2.349C2.503 16.825 4.934 14.163 4.934 8.841Z" fill="#ed1d24"/>
<path transform="matrix(1,0,0,-1,137.5353,149.219)" d="M0 0C0-1.439-.44-2.897-1.304-4.405-1.89-5.396-2.65-6.283-3.584-7.078-4.729-8.081-5.983-8.679-7.336-8.891L-7.414-8.629C-7.093-8.054-6.665-7.244-6.137-6.156-5.554-4.682-5.265-3.672-5.265-3.12-5.265-2.025-5.902-1.065-7.155-.254-7.672 .166-8.424 .652-9.415 1.215V1.385L-7.097 4.509C-6.557 5.261-6.129 5.643-5.793 5.643-4.795 5.643-3.309 4.656-1.304 2.693-.44 1.848 0 .953 0 0" fill="#ed1d24"/>
<path transform="matrix(1,0,0,-1,156.6244,162.87329)" d="M0 0C0-.764-.316-1.389-.961-1.859L-4.363-4.274H-5.23V8.91C-5.23 10.318-5.531 11.286-6.133 11.861-6.731 12.416-7.649 12.686-8.898 12.686H-13.921C-15.012 12.686-15.926 13.253-16.667 14.372-16.867 14.576-16.972 14.807-16.972 15.074-16.972 15.278-16.902 15.502-16.748 15.745L-14.353 19.799H-14.094C-13.77 19.402-13.435 19.039-13.08 18.661-12.736 18.294-12.293 18.109-11.772 18.109H-7.325C-2.446 18.109 0 15.637 0 10.669Z" fill="#ed1d24"/>
<path transform="matrix(1,0,0,-1,177.1135,150.9858)" d="M0 0C0-2.299-.694-4.389-2.071-6.229-3.02-7.568-4.093-8.528-5.28-9.11L-5.859-8.837C-5.739-8.219-5.62-7.614-5.492-7.031-5.327-6.102-5.245-5.137-5.245-4.162V-2.638C-5.245-.224-6.129 1.84-7.903 3.58L-4.582 6.985C-4.362 7.209-4.061 7.321-3.711 7.321-3.313 7.321-2.916 7.155-2.534 6.804-1.543 5.84-.895 4.895-.575 3.988-.197 2.893 0 1.636 0 .201ZM10.314-1.523C10.314-5.327 8.798-8.868 5.743-12.146 3.182-14.881-.046-16.243-3.938-16.243H-4.281C-7.672-16.243-10.337-15.22-12.304-13.168-14.364-11.085-15.39-8.193-15.39-4.497V-2.229C-15.39 .035-16.242 2.017-17.932 3.715L-14.649 6.985C-14.453 7.178-14.214 7.275-13.932 7.275-13.512 7.275-13.107 7.109-12.686 6.766-11.826 5.99-11.224 5.169-10.912 4.293-10.407 2.935-10.164 1.612-10.164 .328V-3.522C-10.164-6.083-9.627-7.95-8.563-9.161-7.367-10.511-5.62-11.182-3.329-11.182H-3.198C-.76-11.182 1.18-10.418 2.604-8.894 4.035-7.367 4.748-5.28 4.748-2.638 4.748-.544 3.977 1.435 2.465 3.283L5.655 6.985C5.894 7.244 6.164 7.364 6.488 7.364 6.866 7.364 7.186 7.224 7.456 6.939 8.528 5.759 9.211 4.752 9.496 3.903 10.048 2.222 10.314 .417 10.314-1.523" fill="#ed1d24"/>
<path transform="matrix(1,0,0,-1,209.6219,161.9554)" d="M0 0-1.234-3.969C-1.435-4.609-1.856-4.926-2.488-4.926H-19.591V-4.498L-18.368-.432C-18.225 .073-17.832 .316-17.23 .316H-9.728C-8.656 .316-7.965 .601-7.649 1.157-7.402 1.535-7.279 2.329-7.279 3.537V8.787C-7.279 9.901-7.491 10.681-7.903 11.113-8.312 11.556-8.991 11.768-9.948 11.768H-15.888C-16.667 11.768-17.23 11.872-17.574 12.077-17.921 12.293-18.368 12.744-18.927 13.454-19.112 13.674-19.209 13.932-19.209 14.202-19.209 14.353-19.128 14.561-18.974 14.827L-16.625 18.881H-16.351C-15.98 18.484-15.614 18.121-15.24 17.743-14.858 17.376-14.422 17.191-13.932 17.191H-8.344C-4.243 17.191-2.195 15.216-2.195 11.251V5.389C-2.195 3.587-2.685 2.087-3.665 .883-3.938 .505-3.865 .316-3.449 .316H0Z" fill="#ed1d24"/>
<path transform="matrix(1,0,0,-1,244.8378,163.2666)" d="M0 0C0-.648-.355-1.223-1.088-1.721L-4.281-3.881H-5.196V10.183C-5.196 11.297-5.389 12.061-5.771 12.47-6.137 12.879-6.905 13.079-8.073 13.079H-12.995C-13.423 13.079-13.655 12.763-13.655 12.119V3.36C-13.655 1.06-14.295-.779-15.606-2.16-16.74-3.329-18.295-3.919-20.277-3.919H-20.443C-21.662-3.919-22.626-3.68-23.336-3.186-23.564-2.997-23.617-2.673-23.506-2.191L-22.464 1.766C-21.963 1.435-21.323 1.273-20.543 1.273-19.471 1.273-18.923 1.863-18.923 3.031V8.759C-18.923 10.418-18.584 11.722-17.882 12.698-17.67 12.987-17.731 13.13-18.059 13.13-19.892 13.13-21.323 13.812-22.376 15.197-22.58 15.467-22.676 15.718-22.676 15.949-22.676 16.134-22.599 16.335-22.464 16.574L-20.096 20.192H-19.841C-19.023 19.07-17.932 18.502-16.567 18.502H-6.234C-4.058 18.502-2.473 18.024-1.478 17.064-.494 16.088 0 14.352 0 11.861Z" fill="#ed1d24"/>
<path transform="matrix(1,0,0,-1,267.8458,145.381)" d="M0 0-1.612-2.993C-2.249-4.205-2.997-4.806-3.849-4.806H-4.401C-4.899-4.806-5.146-5.416-5.146-6.654V-17.265C-5.146-18.152-5.512-18.866-6.276-19.398L-9.593-21.72H-10.507V-10.978C-10.507-9.666-10.422-8.714-10.256-8.089-9.928-6.958-9.323-6.06-8.432-5.404-8.309-5.323-8.262-5.203-8.301-5.061-8.301-4.899-8.378-4.806-8.559-4.806H-16.829C-18.229-4.806-19.317-4.255-20.111-3.171-20.347-2.932-20.458-2.685-20.458-2.419-20.458-2.237-20.362-1.967-20.158-1.616L-17.832 2.307H-17.62L-17.369 2.002C-16.458 1.084-15.71 .617-15.128 .617H0Z" fill="#ed1d24"/>
<path transform="matrix(1,0,0,-1,291.2046,149.6859)" d="M0 0C0-.702-.031-1.427-.127-2.168-.54-5.261-1.412-7.872-2.742-10.002-4.436-12.728-6.819-14.823-9.894-16.316-11-16.844-12.933-17.646-15.691-18.699-18.287-19.66-20.069-20.277-21.006-20.555H-21.708L-20.971-16.485C-20.771-15.436-20.346-14.804-19.706-14.592-17.766-13.951-16.038-13.338-14.519-12.736L-17.558-3.275C-17.978-1.971-18.491-1.018-19.139-.359-19.637 .166-20.489 .737-21.708 1.35L-19.093 5.343C-18.757 5.855-18.345 6.044-17.878 5.902-16.69 5.489-15.594 4.779-14.603 3.788-13.704 2.87-13.068 1.404-12.686-.594L-10.684-11.386-9.647-10.889C-8.343-10.271-7.463-9.674-7.02-9.084-6.418-8.32-6.021-7.109-5.847-5.419-5.635-3.02-5.635-1.57-5.847-1.099-6.222-.243-7.213 .609-8.809 1.489L-5.978 5.192C-5.62 5.662-5.234 5.902-4.787 5.902-4.559 5.902-4.169 5.74-3.614 5.423-2.341 4.644-1.497 4.023-1.076 3.576-.351 2.708 0 1.516 0 0" fill="#ed1d24"/>
<path transform="matrix(1,0,0,-1,311.8214,155.6066)" d="M0 0C0 3.618-1.759 5.419-5.281 5.419H-9.203C-9.585 5.419-9.936 5.28-10.245 4.991-10.688 4.613-10.904 2.796-10.904-.428-10.904-2.723-10.442-4.347-9.516-5.272-8.698-6.141-7.313-6.561-5.369-6.561-3.448-6.561-2.048-6.002-1.185-4.887-.386-3.853 0-2.226 0 0M5.361 1.011C5.361-2.715 4.2-5.847 1.875-8.37-.201-10.599-2.835-11.71-6.025-11.71-9.142-11.71-11.591-10.873-13.4-9.207-15.197-7.525-16.104-5.18-16.104-2.148-16.104-.335-15.98 .991-15.761 1.813-15.394 3.051-14.715 4.12-13.697 5.037-13.493 5.211-13.894 5.462-14.889 5.786-16.22 6.249-17.165 6.792-17.716 7.41-17.913 7.653-18.013 7.927-18.013 8.247-18.013 8.548-17.928 8.795-17.758 8.999L-15.44 12.532H-15.178C-14.156 11.41-13.022 10.842-11.772 10.842H-4.413C-1.416 10.842 .914 10.09 2.576 8.563 4.443 6.897 5.361 4.37 5.361 1.011" fill="#ed1d24"/>
<path transform="matrix(1,0,0,-1,343.3728,156.1698)" d="M0 0C0-2.627-.764-4.999-2.299-7.143-4.162-9.716-6.812-11.016-10.245-11.016-11.641-11.016-12.69-10.842-13.415-10.507-14.001-10.229-14.283-9.847-14.283-9.361-14.283-9.176-14.252-8.991-14.202-8.817L-13.199-4.991C-12.204-5.519-11.07-5.786-9.79-5.786-8.173-5.786-7.043-5.373-6.388-4.52-5.739-3.684-5.412-2.144-5.412 .085-5.412 2.557-5.897 4.247-6.873 5.157-7.664 5.817-8.833 6.153-10.406 6.153-12.277 6.153-13.597 5.724-14.375 4.849-14.985 4.135-15.436 2.851-15.729 .98L-16.859-6.557C-17.033-7.653-17.315-8.416-17.689-8.86-17.951-9.118-18.46-9.411-19.228-9.755L-21.974-10.931H-22.888L-21.758-4.582C-21.237-1.655-20.971 .344-20.971 1.408-20.971 3.398-21.554 5.161-22.719 6.696-23.081 7.202-23.521 7.703-24.011 8.2L-21.226 11.46C-20.782 11.958-20.377 12.208-20.011 12.208-19.305 12.208-18.499 11.529-17.608 10.183-17.025 9.323-16.536 8.262-16.169 7.001-16.108 6.796-15.988 6.696-15.822 6.696-15.645 6.696-15.521 6.812-15.436 7.047-14.468 10.04-12.389 11.541-9.196 11.541H-8.544C-5.774 11.541-3.656 10.704-2.203 9.034-.725 7.36 0 5.011 0 1.983Z" fill="#ed1d24"/>
</g>
</svg>
