<?xml version="1.0" encoding="UTF-8"?>
<svg id="a" xmlns="http://www.w3.org/2000/svg" version="1.1" viewBox="0 0 24 24">
  <defs>
    <style>
      .cls-1 {
        fill: #e80c0c;
        stroke-width: 0px;
      }
    </style>
  </defs>
  <path class="cls-1" d="M23,21c0,.6-.4,1-1,1h-2c-.4,0-.7-.2-.9-.6l-2.4-4.9c-.2-.3-.5-.6-.9-.6h-4c-1.5,0-2.8-1.1-3-2.7l-.7-6.5c-1.2-.4-2.1-1.5-2.1-2.8s1.3-3,3-3,3,1.3,3,3-.8,2.3-1.9,2.8l.2,2.2h3.7c.6,0,1,.4,1,1s-.4,1-1,1h-3.4l.2,2.1c0,.5.5.9,1,.9h4c1.1,0,2.2.6,2.7,1.7l2.2,4.3h1.4c.6,0,1,.4,1,1ZM8,21c-2.8,0-5-2.2-5-5s1.5-4.1,3.6-4.8l-.2-2c-3.1.8-5.3,3.5-5.3,6.8s3.1,7,7,7,5.8-2.1,6.7-5h-2.1c-.8,1.8-2.5,3-4.6,3Z"/>
</svg>